 <svg xmlns="http://www.w3.org/2000/svg" viewBox="0 0 192.84 50">
  <defs>
    <style>
      .logo-main-cls-1 {
        fill: #fab018;
      }

      .logo-main-cls-1,
      .logo-main-cls-2,
      .logo-main-cls-3,
      .logo-main-cls-4,
      .logo-main-cls-5,
      .logo-main-cls-6,
      .logo-main-cls-7 {
        fill-rule: evenodd;
      }

      .logo-main-cls-2 {
        fill: #01aaaf;
      }

      .logo-main-cls-3 {
        fill: #2f459c;
      }

      .logo-main-cls-4 {
        fill: #9029a2;
      }

      .logo-main-cls-5 {
        fill: #a3224f;
      }

      .logo-main-cls-6 {
        fill: #fe0000;
      }

      .logo-main-cls-7 {
        fill: #e96202;
      }

      .logo-main-cls-8 {
        fill: #606060;
      }
    </style>
  </defs>
  <title>Logo_Main</title>
  <g id="Layer_2" data-name="Layer 2">
    <g id="Layer_1-2" data-name="Layer 1">
      <path class="logo-main-cls-1"
        d="M16.24,10V9.9A3.5,3.5,0,0,0,16.32,9V8.88a2.44,2.44,0,0,0,.13-.8V8l0-.07c.13-.58.25-1.15.41-1.72.12-.4.22-.81.34-1.2.06-.22.13-.42.21-.63,0-.06,0-.16.14-.13a7.1,7.1,0,0,0,1.12.12c.56.06,1.12.09,1.68.13a2.92,2.92,0,0,0,.78,0h.17a1.82,1.82,0,0,0,.77.06h.21a2.18,2.18,0,0,0,.84.06h.17s.07,0,.11,0c.53,0,1.07.07,1.6.07a3.69,3.69,0,0,1,.47,0,7,7,0,0,0,1.3,0c.08,0,.16,0,.17-.13l0,0,.09-.07a8.1,8.1,0,0,1,3.32-1.94A7.8,7.8,0,0,1,33,2.15.19.19,0,0,0,33.19,2h0a.1.1,0,0,0,.11-.09l0,0a.54.54,0,0,0,.21-.08,4.28,4.28,0,0,1,1-.39,3.61,3.61,0,0,0,.64-.19h.06a.17.17,0,0,0,.1,0,6.2,6.2,0,0,1,1.22-.07,2,2,0,0,1,.87.19c.09,0,.16.12.26.12l.11.11a.64.64,0,0,0,0,.07.92.92,0,0,1,.1.81,2.94,2.94,0,0,1-.46,1s-.06.09,0,.15a.11.11,0,0,0,.14,0,3.2,3.2,0,0,1,.54-.08h.1a.28.28,0,0,0,.19.07,3.28,3.28,0,0,1,1,.42c.17.1.29.26.46.37,0,0,0,0,0,0A3.68,3.68,0,0,1,40,5v.09c-.11.18-.17.4-.29.58a1.39,1.39,0,0,0-.27.41l0,0a.06.06,0,0,0-.05.08,0,0,0,0,0,0,0c-.09.12-.07.21.08.27a2.47,2.47,0,0,0,.36.11,5,5,0,0,1,.83.35l.14.14s0,.06,0,.08a1.1,1.1,0,0,1,.12.85,1.74,1.74,0,0,1-.26.53c-.14.23-.34.43-.48.68a.36.36,0,0,0,.17.58l.18.07a1.1,1.1,0,0,1,.73.6,1.66,1.66,0,0,1,0,1.2c0,.12-.13.21-.13.34s0,0,0,0a.22.22,0,0,0-.13.19l0,.06a2.79,2.79,0,0,0-.39.31h-.1a9,9,0,0,1-1.4.58,1.28,1.28,0,0,0-.47.18h-.17l-1.16.29a2.33,2.33,0,0,0-.63.16h-.09a1.08,1.08,0,0,0-.44,0c-.13,0-.27,0-.37.09h-.11a.92.92,0,0,0-.37,0c-.48,0-1,.09-1.42.1a8.93,8.93,0,0,1-1.37-.1l-1.33-.17a4.49,4.49,0,0,1-1.79-.54.75.75,0,0,0-.31-.15l0,0a.57.57,0,0,0-.29-.19l-.06,0a8.67,8.67,0,0,0-.79-.69.42.42,0,0,0-.12,0c-.6,0-1.21-.06-1.82-.11-.32,0-.64,0-1-.05A3.08,3.08,0,0,0,24,12H23.8A2,2,0,0,0,23,11.9h-.13a.75.75,0,0,0-.39-.07c-.69-.05-1.38-.06-2.06-.12-.89-.07-1.77-.09-2.65-.19-.26,0-.51,0-.76-.07a.68.68,0,0,1-.56-.53,5,5,0,0,1-.14-.79Z">
      </path>
      <path class="logo-main-cls-2"
        d="M12.75,20.13c-.05,0-.07,0-.1.05-.62.67-1.28,1.3-1.92,1.94a.84.84,0,0,1-1,.11,6.87,6.87,0,0,1-1.78-1.62,6.14,6.14,0,0,0-.58-.68v0a6.3,6.3,0,0,0-.55-.8c-.44-.61-.83-1.25-1.23-1.88,0-.06-.06-.1,0-.16.47-.42.9-.88,1.34-1.32.87-.87,1.75-1.74,2.61-2.63s1.52-1.6,2.22-2.46A.81.81,0,0,0,12,9.93a3.64,3.64,0,0,1,0-1A9.41,9.41,0,0,1,13.4,4.71,4.08,4.08,0,0,1,14,4,.19.19,0,0,0,14,3.81a3.26,3.26,0,0,1,.26-1.15,6.31,6.31,0,0,1,1.25-2,2.58,2.58,0,0,1,.65-.49.89.89,0,0,1,1.23.31,4,4,0,0,1,.42.91.76.76,0,0,1,0,.11c.06.14.13.11.18,0a1.67,1.67,0,0,1,.42-.53A2.78,2.78,0,0,1,20,.27.88.88,0,0,1,21,1a4.77,4.77,0,0,1,.17.65.46.46,0,0,0,.08.19,0,0,0,0,0,0,0c0,.12.11.14.22.08l.72-.42a1.05,1.05,0,0,1,1.6.59c.09.26.13.55.2.82a1.66,1.66,0,0,0,.12.31c.13.23.22.26.47.16l.39-.18a1,1,0,0,1,1.11.1,1.76,1.76,0,0,1,.69,2,.61.61,0,0,0,0,.27v0a5.15,5.15,0,0,0-.32.82c-.23.58-.51,1.13-.79,1.69-.17.32-.38.62-.52,1h0a.26.26,0,0,0-.12.21l0,0a1.28,1.28,0,0,0-.29.4,3.6,3.6,0,0,0-.39.62v0a.74.74,0,0,0-.27.36s0,0,0,0a1.73,1.73,0,0,0-.44.53l-.12.13a.22.22,0,0,0-.14.14h0a1.79,1.79,0,0,0-.45.46l-.13.12a2.3,2.3,0,0,0-.66.58l-.07.08c-.08,0-.11.06-.16.1a5.18,5.18,0,0,1-1.22.91,6,6,0,0,1-1.9.55.8.8,0,0,0-.61.28,5.44,5.44,0,0,1-.47.49l-1.33,1.38s-.07.06-.06.12l0,0c-.07,0-.1,0-.1.1l-.23.23a7.71,7.71,0,0,0-.71.69c-.06.06-.14.09-.14.19l0,0c-.07,0-.11,0-.1.09l-.09.09a.12.12,0,0,0-.1.11l0,0c-.06,0-.08.05-.12.08l-1.56,1.61s-.09.06-.07.13Z">
      </path>
      <path class="logo-main-cls-3"
        d="M4.37,13.18c0-.19,0-.37,0-.56a1.07,1.07,0,0,1,1.32-.87,6.83,6.83,0,0,1,.87.29l.13,0c.41.09.54,0,.57-.43a2.47,2.47,0,0,1,.05-.38,1.17,1.17,0,0,1,1.1-.88,1.92,1.92,0,0,1,1.85.82,14.56,14.56,0,0,1,1.62,2.44A17.63,17.63,0,0,1,13.37,17a17.48,17.48,0,0,1,.36,1.89,8.23,8.23,0,0,1,.2,1.71,5,5,0,0,1-.43,1.78c-.08.19-.15.37-.24.55a.63.63,0,0,0,0,.45q.72,3.07,1.42,6.15c.31,1.36.63,2.73.91,4.11a.76.76,0,0,1-.33.83,3,3,0,0,1-1.13.47,13.51,13.51,0,0,1-2.18.33c-1,.08-2,.09-3.05.07-.12,0-.28,0-.38,0s-.05-.24-.07-.36c-.22-1-.44-2-.65-3-.28-1.32-.56-2.64-.91-3.94a11.65,11.65,0,0,0-.53-1.74.36.36,0,0,0-.2-.22,4.27,4.27,0,0,1-1.28-.83,9.37,9.37,0,0,1-2.76-4,1.22,1.22,0,0,0-.41-.54,4.28,4.28,0,0,1-.94-1.21,5.84,5.84,0,0,1-.67-1.61A2.65,2.65,0,0,1,0,17a.91.91,0,0,1,1-.77,3.62,3.62,0,0,1,1,.15c.06,0,.13.06.18,0s0-.1-.05-.15A2.35,2.35,0,0,1,2,14.78a3.32,3.32,0,0,1,.16-.62.94.94,0,0,1,1.16-.67,7.46,7.46,0,0,1,.84.26c.18.06.25,0,.26-.17S4.37,13.31,4.37,13.18Z">
      </path>
      <path class="logo-main-cls-4"
        d="M4,38.47a1.17,1.17,0,0,1,.5-.91,4.25,4.25,0,0,1,.59-.43.18.18,0,0,0,.1-.17c0-.09-.09-.09-.15-.1a1.84,1.84,0,0,1-.81-.44,3.56,3.56,0,0,1-.66-.79,1.1,1.1,0,0,1-.18-.79A1.16,1.16,0,0,1,4,34.12c.17-.11.37-.17.54-.29s.2-.21.06-.35L4,32.86a1,1,0,0,1,.09-1.51,7.81,7.81,0,0,1,.88-.52,1.26,1.26,0,0,0,.32-.25.28.28,0,0,0,0-.39c-.08-.12-.18-.23-.27-.34a1,1,0,0,1-.21-1.16,1.75,1.75,0,0,1,.89-1,2.08,2.08,0,0,1,.82-.17,2.13,2.13,0,0,1,.62,0,6.87,6.87,0,0,0,.78.08c.39.06.78.14,1.17.22s1,.22,1.45.36.88.27,1.31.43a10.52,10.52,0,0,1,1.77.82c.56.33,1.09.71,1.64,1a4.56,4.56,0,0,1,1.64,1.68,5.4,5.4,0,0,1,.48,1c.1.31.4.4.64.54.53.31,1.07.6,1.61.9l1.62.9,2.18,1.25L25.58,38c.4.22.77.49,1.18.7a.76.76,0,0,1,.47.63,1.4,1.4,0,0,1-.11.67A10.19,10.19,0,0,1,25.5,42.6c-.27.34-.55.66-.82,1s-.68.74-1,1.12c-.1.11-.19.25-.32.29s-.23-.12-.35-.19l-2.41-1.41c-.65-.38-1.31-.74-1.95-1.12s-1.41-.78-2.12-1.16c-.37-.19-.75-.38-1.14-.54a.6.6,0,0,0-.49,0A5.07,5.07,0,0,1,13.3,41a8.79,8.79,0,0,1-1.54,0,9.44,9.44,0,0,1-2-.34,7.39,7.39,0,0,1-1.27-.45.23.23,0,0,0-.18,0A3.93,3.93,0,0,1,7,40.2a7,7,0,0,1-1.5-.38A3.41,3.41,0,0,1,4.17,39,.84.84,0,0,1,4,38.47Z">
      </path>
      <path class="logo-main-cls-5"
        d="M25.53,35.72a6.91,6.91,0,0,1,1.36.15c.19,0,.38.1.57.15a.5.5,0,0,0,.34,0l2.12-.91,3.16-1.33c1-.44,2.05-.87,3.08-1.29l1.42-.58a.71.71,0,0,1,.77.14,2.9,2.9,0,0,1,.73,1.12,17.5,17.5,0,0,1,1,3.41c.12.6.22,1.21.31,1.81,0,.1,0,.18-.1.21a7.28,7.28,0,0,0-1,.37l-1.78.72c-.54.22-1.07.46-1.61.67-.93.35-1.83.78-2.74,1.19a8.38,8.38,0,0,0-1.29.68.38.38,0,0,0-.16.25,4.14,4.14,0,0,1-.27.77,9.08,9.08,0,0,1-.73,1.25A9.62,9.62,0,0,1,29.34,46a8.29,8.29,0,0,1-1.71,1.24.72.72,0,0,0-.35.36,2.48,2.48,0,0,1-.59.8A6.63,6.63,0,0,1,25,49.69a3,3,0,0,1-1,.31.91.91,0,0,1-.95-.79,3.2,3.2,0,0,1,0-1.07.15.15,0,0,0-.07-.16c-.07,0-.09,0-.14.05a1.67,1.67,0,0,1-.76.36,3.38,3.38,0,0,1-1.23,0,1,1,0,0,1-.87-.89,8.11,8.11,0,0,1,.12-1c0-.18,0-.27-.23-.26s-.6.11-.9.12a1,1,0,0,1-1.12-.92,2.34,2.34,0,0,1,.09-.91,1.23,1.23,0,0,0,.06-.39c0-.35-.18-.51-.53-.46a2.33,2.33,0,0,1-.59,0,1,1,0,0,1-.59-.36,1.83,1.83,0,0,1,0-2.12,11.44,11.44,0,0,1,1.33-1.45,19.28,19.28,0,0,1,2.35-1.87,11.91,11.91,0,0,1,2.32-1.28c.62-.24,1.26-.44,1.88-.66A4.07,4.07,0,0,1,25.53,35.72Z">
      </path>
      <path class="logo-main-cls-6"
        d="M37.19,26.18v-.07a7.75,7.75,0,0,0,.45-1.25l0-.06a6.32,6.32,0,0,0,.32-.86,3.44,3.44,0,0,0,.24-.75l.45-1.29.15-.49c.1,0,.08-.1.11-.15A27.48,27.48,0,0,1,40,18.48l0,0a1.33,1.33,0,0,1,.71-.14,5.52,5.52,0,0,1,1.59.43c.3.11.58.28.89.37a0,0,0,0,0,0,0c.08.11.22.13.33.18.33.18.65.39,1,.54l0,0s0,.05.08,0h0a.69.69,0,0,0,.37.23l0,0a.87.87,0,0,0,.37.22s0,0,0,0a1.91,1.91,0,0,0,.46.3l0,0a.51.51,0,0,0,.25.16l0,0a.89.89,0,0,0,.26.21.15.15,0,0,1,.09.22,0,0,0,0,0,0,0,4.07,4.07,0,0,0-.37.95l0,.06a2.25,2.25,0,0,0-.2.51,2.76,2.76,0,0,0-.24.7l0,.06c-.06,0-.06.09-.08.13-.13.37-.27.73-.4,1.1-.33.93-.68,1.85-1,2.79-.22.69-.46,1.37-.63,2.08,0,.16-.1.34,0,.49a4.83,4.83,0,0,1,.6,1.23,9,9,0,0,1,.34,1.33,10.93,10.93,0,0,1,.13,1.27,9.55,9.55,0,0,1-.24,2.56.45.45,0,0,0,0,.34,2.25,2.25,0,0,1,.2.85,6,6,0,0,1,0,1.41A4.2,4.2,0,0,1,44.18,41a.93.93,0,0,1-1.37.34c-.14-.08-.27-.17-.4-.26L42.33,41c-.07-.17-.24-.25-.35-.4s-.14,0-.16.07,0,.15,0,.22a2.73,2.73,0,0,1-1.15,1.64.84.84,0,0,1-1.11,0l-.29-.23,0,0a1.87,1.87,0,0,0-.38-.55c-.11-.12-.21-.1-.31,0s-.3.46-.46.67a1,1,0,0,1-1,.46,1.46,1.46,0,0,1-.91-.64,3.79,3.79,0,0,0-.44-.55c-.17-.16-.38-.23-.55,0l-.28.32a1,1,0,0,1-.59.39,1.64,1.64,0,0,1-.66-.05,1.7,1.7,0,0,1-1.2-1.19,8.15,8.15,0,0,1-.21-1.77c0-.45,0-.9,0-1.35a12.64,12.64,0,0,1,.13-1.51,15.11,15.11,0,0,1,.36-2A8.35,8.35,0,0,1,33,33.37c.18-.43.37-.85.55-1.27A5.13,5.13,0,0,1,36,29.2a.78.78,0,0,0,.37-.41c.21-.62.43-1.23.65-1.85C37.05,26.69,37.11,26.43,37.19,26.18Z">
      </path>
      <path class="logo-main-cls-7"
        d="M36.38,20.94c0-.33,0-.66,0-1a.54.54,0,0,0-.09-.35c-.61-.92-1.22-1.85-1.82-2.78s-1-1.56-1.5-2.35l-.18-.26s-.05-.05,0-.09.07,0,.11,0,.37.05.55.05A16.19,16.19,0,0,0,35.88,14c.6-.09,1.2-.2,1.79-.34a11.67,11.67,0,0,0,2.6-.86c.16-.08.24-.06.32.08a15.21,15.21,0,0,0,1.06,1.47.7.7,0,0,0,.56.31,5.43,5.43,0,0,1,1.63.46A9.3,9.3,0,0,1,47,17.14a7.56,7.56,0,0,1,.71.79.19.19,0,0,0,.15.11,3.27,3.27,0,0,1,1.25.66,5.52,5.52,0,0,1,1.63,1.77,1.39,1.39,0,0,1,.21,1,.89.89,0,0,1-.55.65,3.5,3.5,0,0,1-1.11.24c-.05,0-.1,0-.12,0s0,.09,0,.12a2.2,2.2,0,0,1,.68,1.32,2.32,2.32,0,0,1,0,.91.92.92,0,0,1-.91.75c-.26,0-.52,0-.78,0s-.26.07-.2.27.13.38.19.56a1.14,1.14,0,0,1-.25,1.33A1.38,1.38,0,0,1,47,28a5,5,0,0,0-.77,0c-.27,0-.38.16-.33.43s.1.36.12.54A1.09,1.09,0,0,1,45.4,30a1.75,1.75,0,0,1-1.84.15,12.6,12.6,0,0,1-2.71-1.93,20.62,20.62,0,0,1-1.7-1.67,11.23,11.23,0,0,1-1.59-2.28c-.25-.48-.54-.94-.77-1.43A4.63,4.63,0,0,1,36.38,20.94Z">
      </path>
      <path class="logo-main-cls-8"
        d="M59.82,24A8.55,8.55,0,0,1,62.23,18a8.18,8.18,0,0,1,10.85-.84,8.16,8.16,0,0,1,2.84,4.55H73.51a5.41,5.41,0,0,0-2.1-2.83,5.84,5.84,0,0,0-3.35-1,5.51,5.51,0,0,0-4.14,1.81,6.22,6.22,0,0,0,0,8.63,5.54,5.54,0,0,0,4.14,1.81,5.79,5.79,0,0,0,5.6-4H76a8.44,8.44,0,0,1-2.89,4.66A8.09,8.09,0,0,1,62.23,30,8.5,8.5,0,0,1,59.82,24Z">
      </path>
      <path class="logo-main-cls-8"
        d="M79.3,24a8.53,8.53,0,0,1,2.53-6.17A8.3,8.3,0,0,1,88,15.21a8.42,8.42,0,0,1,6.17,2.58,8.79,8.79,0,0,1,0,12.34,8.64,8.64,0,0,1-12.32,0A8.54,8.54,0,0,1,79.3,24Zm14.9,0A6.27,6.27,0,0,0,88,17.69a5.88,5.88,0,0,0-4.37,1.86A5.92,5.92,0,0,0,81.78,24a5.92,5.92,0,0,0,1.83,4.41,6.11,6.11,0,0,0,8.78,0A6,6,0,0,0,94.2,24Z">
      </path>
      <path class="logo-main-cls-8" d="M102.78,32.4h-2.43V15.52h1.88l8.22,11.89V15.52h2.41V32.4h-1.93l-8.15-11.79Z">
      </path>
      <path class="logo-main-cls-8" d="M119.49,25.19V30h7.84V32.4H117V15.55H127.3V18h-7.81v4.75h7.64v2.46Z"></path>
      <path class="logo-main-cls-8"
        d="M130.56,24A8.55,8.55,0,0,1,133,18a8.18,8.18,0,0,1,10.85-.84,8.16,8.16,0,0,1,2.84,4.55h-2.41a5.45,5.45,0,0,0-2.09-2.83,5.9,5.9,0,0,0-3.36-1,5.52,5.52,0,0,0-4.14,1.81,6.22,6.22,0,0,0,0,8.63,5.56,5.56,0,0,0,4.14,1.81,5.79,5.79,0,0,0,5.6-4h2.39a8.51,8.51,0,0,1-2.9,4.66A8.09,8.09,0,0,1,133,30,8.5,8.5,0,0,1,130.56,24Z">
      </path>
      <path class="logo-main-cls-8" d="M156.33,32.4H153.9V17.84h-5.11V15.52h12.63v2.32h-5.09Z"></path>
      <path class="logo-main-cls-8"
        d="M174.68,32.4l-1.61-4.27h-6.85l-1.64,4.27H162l6.78-17.09h1.78l6.78,17.09Zm-5-13.21-2.53,6.65h5.06Z"></path>
      <path class="logo-main-cls-8"
        d="M183.53,25V23.84h2.85a2.93,2.93,0,1,0,0-5.86h-3.74V32.4h-2.41V15.52h6.15a5.22,5.22,0,0,1,4.05,1.6,5.48,5.48,0,0,1,1.44,3.78,5.3,5.3,0,0,1-1.14,3.34,5.06,5.06,0,0,1-3.22,1.82l5.33,6.34h-3.16Z">
      </path>
    </g>
  </g>
</svg>