<svg width="17" height="16" viewBox="0 0 17 16" fill="none" xmlns="http://www.w3.org/2000/svg">
<path d="M14.57 6.12L15.13 5.56C15.7201 4.96989 16.0516 4.16953 16.0516 3.33499C16.0516 2.50045 15.7201 1.70009 15.13 1.10999C14.5399 0.519879 13.7395 0.188385 12.905 0.188385C12.0704 0.188385 11.2701 0.519879 10.68 1.10999L10.12 1.67001L14.57 6.12Z" fill="#FF227C"/>
<path d="M9.02008 2.77002L2.06006 9.73001L4.85004 10.2801L10.6901 4.45004L9.02008 2.77002Z" fill="#FF227C"/>
<path d="M0.659912 15.58C0.754594 15.676 0.872566 15.7458 1.00226 15.7826C1.13195 15.8194 1.26892 15.8219 1.3999 15.79L5.04993 14.88L4.43994 11.8L1.35992 11.19L0.449951 14.84C0.41802 14.971 0.420532 15.108 0.457336 15.2377C0.494141 15.3674 0.563943 15.4853 0.659912 15.58Z" fill="#FF227C"/>
<path d="M11.79 5.54999L5.95996 11.39L6.51001 14.18L13.47 7.21997L11.79 5.54999Z" fill="#FF227C"/>
</svg>
